<?xml version="1.0" encoding="UTF-8"?>
<svg version="1.1" viewBox="0 0 1600 1600" width="400" height="400" xmlns="http://www.w3.org/2000/svg">
<path transform="translate(0)" d="m0 0h1600v1600h-1600z" fill="#FEFEFC"/>
<path transform="translate(738,454)" d="m0 0h17l31 3 26 5 21 6 28 10 26 11 33 15 34 14 21 7 13 3 19 1 15-3 12-4 5-1-1 5-6 10-7 8-11 7-11 5-13 3h-22l-25-5h-19l-15 5-8 6-4 7v10l5 8 7 6 11 4 8 1h13l20-3 19-5 26-8 20-4h26l17 4 13 6 10 6 13 11 8 9 1 3-29-5-8-1h-36l-23 4-25 7-36 12-19 5-14 2h-14l-18-2-15-4-12-5-13-7-12-8-13-10-3-1 8 13 7 15 6 20 2 12v24l-2 9-1 8-3 9-3 11-4 8-2 5h-2l-1 5-7 11h-2l-1 5-12 14-12 11-3 4 22-13 14-9 32-19 16-9 34-17 30-13 27-10 25-8 28-7 25-4 23-2h21l21 2 26 5 26 8 52 20 19 6 18 4 8 1h31l21-4 24-8 20-8-2 4-9 8-5 5-11 10-14 11-24 16-18 10-25 12-27 10-21 6-27 5-11 1h-19l-23-3-62-12-36-6-26-3-17-1h-24l-20 2-16 4-16 8-8 8-5 8-1 3v9l3 6 8 6 3 1h12l36-14 14-4 12-2h22l20 4 19 7 16 8 16 9 17 12 11 8-1 2-12-3-31-4-20-1h-18l-29 2-24 4-29 7-25 7-64 20-37 10-39 8-41 6-21 2-17 1h-33l-26-2-26-4-21-5-24-8-25-11-20-10-17-12-10-8-10-9-9-11-10-13-9-16-5-11-5-15-4-17-2-15v-37l3-24 6-27 9-29 10-24 8-16 11-19 8-11 10-13 11-12 1-2h2l2-4 15-14 20-15 19-12 25-13 23-9 26-8 23-5 32-5 22-2z" fill="#133D6F"/>
<path transform="translate(722,567)" d="m0 0h28l21 5 16 7 11 6 9 7 13 10 3 2 6 11 8 15 7 21 3 16v24l-2 9-1 8-3 9-3 11-4 8-2 5h-2l-1 5-7 11h-2l-1 5-12 14-12 11-5 5-21 12-16 7-15 5-25 4h-13l-19-3-21-7-16-8-11-8-10-9-10-12-10-19-5-14-3-15-1-9v-23l4-20 9-24 9-16 10-13 12-13 11-10 15-10 17-9 19-7 14-3z" fill="#BBD44F"/>
<path transform="translate(945,997)" d="m0 0h83l10 3 10 6 6 9 3 8v9l-3 11-5 10-5 6-8 6 1 3 8 7 3 7v14l-4 14-5 9-9 10-11 7-10 4-5 1h-89l2-12 22-104z" fill="#133D6F"/>
<path transform="translate(619,653)" d="m0 0h6l4 4 2 5v8l-4 14-6 8-5 3h-3l-1 5 6 12 7 11 6 8v2l3 1 12 12 15 10 18 8 15 4 20 1h13l21-1-1-4-4-5-1-2v-7l5-10 4-5 10-6 4-1h7l6 3 4 4 1 3v9l-1 2 5 1 16-10 5-5 5-4-1-4-4-8v-10l4-11 5-7 4-3h7l6 7 2 7 3-3h2l1-2 2 1 1-10h1v9l-3 16-4 10-2 7-3 6-2 5h-2l-1 5-7 11h-2l-1 5-12 14-12 11-5 5-21 12-16 7-15 5-25 4h-13l-19-3-21-7-16-8-11-8-10-9-10-12-10-19-5-14-3-15-1-9v-23l4-20 5-14 3-1 3 1 8-5z" fill="#95C54F"/>
<path transform="translate(182,997)" d="m0 0h74l16 5 8 6 7 8 4 10 1 5v10l-4 17-8 16-8 9-10 7-11 5-14 3-39 1-2 6-7 33-2 3h-35l1-9 27-128z" fill="#133D6F"/>
<path transform="translate(1134,997)" d="m0 0h36l3 13 17 92 6 32v8l-35-1-2-5-4-24h-52l-7 10-10 17-4 3-36-1 2-5 13-21 9-15 11-18 15-24 31-51z" fill="#133D6F"/>
<path transform="translate(541,997)" d="m0 0h37l-2 13-10 45 8-7 12-12h2l2-4 8-7 24-24 5-4h44l-6 7-7 7-8 7-14 14h-2l-2 4-8 7-24 24 1 5 12 20 24 38 6 10v1h-42l-10-15-12-19-10-16-6-10-3-1-1 10-11 50-5 2-32-1 2-12 22-104z" fill="#133D6F"/>
<path transform="translate(818,997)" d="m0 0h102l-1 9-5 21-1 1h-65l-3 15-2 12h48l-4 17-3 11-1 1h-47l-2 11-3 14 1 1 64 1-1 9-4 19-1 2h-102l1-10 19-90 9-43z" fill="#133D6F"/>
<path transform="translate(458,993)" d="m0 0h14l19 3 14 5 6 4 1 1v7l-6 28-5-3-12-6-13-3-10-1h-9l-16 3-12 6-10 9-7 12-4 12-1 7v13l3 8 3 4v2l4 2 8 3 5 1h29l17-4 17-8h2l-2 13-5 20-6 4-13 5-16 4-9 1h-17l-14-2-15-6-10-7-5-5-6-7-5-10-3-10-1-15 2-15 7-21 9-16 11-13 13-10 16-8 17-5z" fill="#133D6F"/>
<path transform="translate(701,997)" d="m0 0h36l-5 26-17 79-2 8 62 1-1 10-4 19-1 1h-99l2-12 21-99 7-32z" fill="#133D6F"/>
<path transform="translate(1253,997)" d="m0 0h36l-2 12-9 43-12 55v3l62 1-5 25-2 5h-99l2-12 15-70 13-61z" fill="#133D6F"/>
<path transform="translate(1373,997)" d="m0 0h36l-1 9-15 71-6 28v5l61 1-2 12-3 15-2 3h-98l1-9 15-70 12-58z" fill="#133D6F"/>
<path transform="translate(324,997)" d="m0 0h37l-12 58-17 79-2 7-3 1-33-1 1-8 16-77 12-56z" fill="#133D6F"/>
<path transform="translate(213,1028)" d="m0 0h28l8 3 4 5 1 2-1 10-5 12-6 5-6 2h-32l1-9 6-27z" fill="#FEFEFC"/>
<path transform="translate(965,1081)" d="m0 0h32l8 2 5 5 1 6-2 9-4 6-3 3-10 3h-32l-3-1 1-7 5-23z" fill="#FEFEFC"/>
<path transform="translate(681,693)" d="m0 0h11l6 3 5 5 3 6v10l-3 7-7 8-8 4h-12l-9-6-4-8v-10l5-10 7-6z" fill="#133D6F"/>
<path transform="translate(768,641)" d="m0 0h12l8 4 5 7v15l-3 6-7 7-5 3-4 1h-9l-8-4-5-7-1-3v-12l4-8 8-7z" fill="#133D6F"/>
<path transform="translate(977,1024)" d="m0 0h27l10 2 4 4 1 7-4 10-7 6-9 2h-26l-3-1 2-12 4-17z" fill="#FEFEFC"/>
<path transform="translate(683,618)" d="m0 0 9 1 6 4 3 5v10l-5 10-8 7-9 4h-7l-6-3-5-6-1-2v-9l4-8 4-5 9-6z" fill="#133D6F"/>
<path transform="translate(765,728)" d="m0 0h7l6 3 4 4 1 3v9l-6 12-7 6-7 3h-11l-8-7-2-4v-7l5-10 4-5 10-6z" fill="#133D6F"/>
<path transform="translate(821,688)" d="m0 0h7l6 7 2 9-2 11-5 10-5 5-5 1-5-1-5-8-1-3v-10l4-11 5-7z" fill="#133D6F"/>
<path transform="translate(619,653)" d="m0 0h6l4 4 2 5v8l-4 14-6 8-5 3-7 1-4-4-2-6v-10l4-11 4-6 6-5z" fill="#133D6F"/>
<path transform="translate(1143,1037)" d="m0 0h2l3 16 4 26-1 5h-33v-3l14-25z" fill="#FEFEFC"/>
<path transform="translate(702,787)" d="m0 0h13l9 3 4 5 1 6-2 4-9 6-3 1h-20l-6-3-3-3-1-6 4-6 5-4z" fill="#133D6F"/>
<path transform="translate(730,573)" d="m0 0h16l8 6 2 5-4 6-5 4-8 4-3 1h-13l-7-3-4-4v-7l4-5 9-5z" fill="#133D6F"/>
<path transform="translate(618,753)" d="m0 0h8l9 6 7 9 3 7 1 8-2 3-5 1-6-2-8-7-7-9-2-5v-9z" fill="#133D6F"/>
<path transform="translate(800,599)" d="m0 0 6 2 9 6 6 8 4 9v6l-6 5-8-3-9-8-6-11-1-7 3-6z" fill="#133D6F"/>
<path transform="translate(722,567)" d="m0 0h9v1h-6v2h23l2 4 3 2-1 2-6-4h-16l-9 4-3 2-3-1 5-7 2-1-4-1h-4v-2z" fill="#A2CC64"/>
<path transform="translate(731,567)" d="m0 0h16l2 2-1 1h-23v-2z" fill="#B5D14C"/>
<path transform="translate(797,782)" d="m0 0 2 1-5 6-5 4h-2l2-4z" fill="#C0D75A"/>
</svg>
