<?xml version="1.0" standalone="no"?>
<!DOCTYPE svg PUBLIC "-//W3C//DTD SVG 20010904//EN"
 "http://www.w3.org/TR/2001/REC-SVG-20010904/DTD/svg10.dtd">
<svg version="1.0" xmlns="http://www.w3.org/2000/svg"
 width="500.000000pt" height="500.000000pt" viewBox="0 0 500.000000 500.000000"
 preserveAspectRatio="xMidYMid meet">

<g transform="translate(0.000000,500.000000) scale(0.100000,-0.100000)"
fill="#000000" stroke="none">
<path d="M2703 3150 c-342 -35 -585 -235 -663 -545 -12 -47 -21 -114 -21 -162
-1 -133 28 -210 114 -301 61 -64 108 -93 214 -132 203 -74 463 -57 809 51 71
22 161 47 199 55 75 17 248 22 305 9 31 -7 33 -6 21 9 -23 28 -116 75 -180 92
-72 18 -113 13 -210 -23 -71 -27 -104 -22 -113 15 -9 33 14 65 62 90 42 22 53
23 180 18 86 -3 181 -14 260 -30 150 -31 203 -32 302 -7 131 34 291 120 353
192 l20 22 -20 -7 c-53 -20 -134 -36 -178 -36 -33 0 -103 18 -214 56 -185 63
-262 74 -383 55 -147 -23 -352 -106 -519 -210 -236 -147 -366 -167 -497 -78
-69 47 -106 118 -112 216 -5 102 20 171 93 249 73 80 144 114 245 120 69 4 84
1 131 -22 30 -14 88 -50 129 -80 135 -98 202 -107 382 -50 90 29 130 37 198
38 47 0 99 -3 115 -7 l30 -9 -25 28 c-61 66 -167 81 -294 42 -93 -28 -186 -30
-215 -4 -27 24 -27 58 0 82 22 19 32 20 179 12 70 -3 119 16 146 57 13 19 11
20 -74 20 -85 0 -90 1 -242 67 -238 103 -350 126 -527 108z"/>
<path d="M2752 2844 c-26 -18 -29 -39 -6 -48 27 -11 51 -7 75 13 20 16 21 21
10 35 -17 20 -50 21 -79 0z"/>
<path d="M2944 2776 c-7 -19 11 -53 36 -66 43 -23 47 13 7 58 -24 26 -35 28
-43 8z"/>
<path d="M2622 2724 c-27 -18 -31 -71 -6 -81 46 -17 104 46 74 81 -16 20 -40
20 -68 0z"/>
<path d="M2846 2664 c-25 -25 -20 -72 9 -86 37 -17 75 12 75 56 0 46 -50 64
-84 30z"/>
<path d="M2466 2628 c-17 -24 -21 -73 -7 -82 26 -16 67 40 59 81 -5 26 -34 27
-52 1z"/>
<path d="M2992 2548 c-19 -24 -23 -62 -8 -83 14 -20 14 -20 36 0 15 14 20 28
18 54 -3 38 -26 52 -46 29z"/>
<path d="M2621 2524 c-25 -32 -26 -47 -5 -68 35 -36 94 -6 94 47 0 49 -57 62
-89 21z"/>
<path d="M2830 2440 c-24 -24 -26 -68 -4 -77 46 -17 104 46 74 81 -17 22 -46
20 -70 -4z"/>
<path d="M2484 2386 c-11 -30 41 -86 66 -71 16 10 11 31 -15 59 -27 29 -43 33
-51 12z"/>
<path d="M2675 2296 c-23 -17 -14 -43 17 -51 34 -9 78 11 78 34 0 32 -60 43
-95 17z"/>
<path d="M2017 1766 c-101 -38 -161 -118 -162 -218 0 -66 21 -103 76 -130 42
-22 136 -24 183 -4 38 16 41 19 50 63 l7 31 -38 -14 c-57 -20 -136 -18 -164 5
-46 37 -19 145 44 178 37 20 122 22 156 3 19 -10 25 -10 32 1 16 26 10 68 -12
80 -34 18 -130 21 -172 5z"/>
<path d="M1340 1608 c-18 -90 -35 -171 -38 -180 -4 -15 3 -18 41 -18 45 0 46
1 53 38 12 67 18 72 88 72 49 0 71 5 97 23 40 27 69 79 69 125 0 79 -41 102
-177 102 l-99 0 -34 -162z m178 86 c36 -7 48 -33 31 -66 -17 -32 -28 -38 -77
-38 l-44 0 7 43 c11 66 21 73 83 61z"/>
<path d="M1736 1753 c-3 -10 -21 -91 -39 -180 l-34 -163 43 0 c50 0 42 -18 88
198 l34 162 -43 0 c-33 0 -45 -4 -49 -17z"/>
<path d="M2260 1613 c-18 -87 -35 -168 -38 -180 -4 -21 -1 -23 41 -23 l46 0
11 58 c20 103 21 104 74 18 l47 -76 50 0 c27 0 49 2 49 5 0 3 -22 41 -50 85
-27 44 -50 83 -50 87 0 4 39 47 87 95 l88 88 -51 0 c-49 0 -53 -2 -129 -72
l-78 -73 6 40 c4 22 9 55 13 73 l7 32 -45 0 -44 0 -34 -157z"/>
<path d="M2700 1767 c0 -1 -16 -76 -35 -166 -19 -90 -35 -169 -35 -177 0 -11
25 -14 125 -14 117 0 125 1 125 19 0 11 3 26 6 35 5 14 -5 16 -75 16 -45 0
-81 2 -81 4 0 4 45 217 55 264 5 20 2 22 -40 22 -25 0 -45 -1 -45 -3z"/>
<path d="M3000 1768 c0 -2 -18 -82 -38 -178 l-38 -175 120 -3 c66 -1 126 0
133 2 7 3 13 19 13 36 l0 30 -80 0 c-84 0 -86 1 -74 48 6 20 12 22 70 22 44 0
64 4 64 13 0 6 3 22 6 34 6 21 2 22 -52 25 -58 3 -59 3 -57 32 3 40 16 46 106
46 69 0 77 2 77 19 0 11 3 26 6 35 5 14 -10 16 -125 16 -72 0 -131 -1 -131 -2z"/>
<path d="M3325 1758 c-4 -11 -75 -338 -75 -345 0 -2 54 -3 120 -3 89 0 129 4
150 15 54 28 81 116 46 153 -15 18 -15 20 3 36 11 10 25 31 31 47 16 37 -1 82
-36 98 -35 16 -233 15 -239 -1z m185 -80 c0 -38 -16 -51 -69 -56 -55 -5 -59 1
-45 56 6 19 13 22 60 22 49 0 54 -2 54 -22z m-36 -124 c23 -9 21 -61 -3 -74
-21 -10 -104 -14 -113 -5 -3 3 -1 24 4 45 10 39 12 40 53 40 24 0 50 -3 59 -6z"/>
<path d="M3718 1627 c-47 -78 -96 -159 -108 -179 l-22 -38 46 0 c43 0 48 3 67
35 21 35 22 35 89 35 71 0 80 -6 80 -51 0 -16 7 -19 45 -19 25 0 45 3 45 8 0
4 -14 85 -32 180 l-32 172 -45 0 -46 -1 -87 -142z m127 -18 c4 -27 5 -53 2
-55 -3 -3 -23 -4 -45 -2 l-40 3 30 53 c17 28 34 52 38 52 4 0 11 -23 15 -51z"/>
<path d="M4106 1743 c-3 -16 -19 -91 -36 -167 -16 -77 -30 -146 -30 -153 0
-10 29 -13 125 -13 117 0 125 1 125 19 0 11 3 26 6 35 5 14 -5 16 -75 16 -79
0 -81 1 -76 23 11 46 55 257 55 262 0 3 -20 5 -44 5 -40 0 -45 -3 -50 -27z"/>
<path d="M4416 1753 c-2 -10 -16 -74 -31 -143 -14 -69 -29 -142 -34 -162 l-9
-38 129 0 c121 0 129 1 129 19 0 11 3 26 6 35 5 14 -5 16 -75 16 -45 0 -81 4
-81 8 0 8 39 193 55 260 5 20 2 22 -39 22 -34 0 -46 -4 -50 -17z"/>
</g>
</svg>
